PathFileType	4	(X/Y/Z)	8_coords_data.trc
DataRate	CameraRate	NumFrames	NumMarkers	Units	OrigDataRate	OrigDataStartFrame	OrigNumFrames
30.0	30.0	9	21	m	30.0	1	53
Frame#	Time	THUMB_TIP	THUMB_IP	THUMB_MCP	THUMB_CMC	INDEX_TIP	INDEX_DIP	INDEX_PIP	INDEX_MCP	MIDDLE_TIP	MIDDLE_DIP	MIDDLE_PIP	MIDDLE_MCP	RING_TIP	RING_DIP	RING_PIP	RING_MCP	PINKY_TIP	PINKY_DIP	PINKY_PIP	PINKY_MCP	WRIST
X1	Y1	Z1	X2	Y2	Z2	X3	Y3	Z3	X4	Y4	Z4	X5	Y5	Z5	X6	Y6	Z6	X7	Y7	Z7	X8	Y8	Z8	X9	Y9	Z9	X10	Y10	Z10	X11	Y11	Z11	X12	Y12	Z12	X13	Y13	Z13	X14	Y14	Z14	X15	Y15	Z15	X16	Y16	Z16	X17	Y17	Z17	X18	Y18	Z18	X19	Y19	Z19	X20	Y20	Z20	X21	Y21	Z21
0	-2.749317978547796e-18	0.4809957080520961	-0.031780244041638706	-0.1712177230648676	0.48675499690313384	-0.027054476585757326	-0.14948071053132828	0.48288706812345183	-0.025994385893992944	-0.11861429942345014	0.4803812890508399	-0.025254345782599552	-0.07408269927397432	0.5020879523105597	-0.009981374908481278	-0.10109514822698576	0.5198109767695742	-0.012401040948476605	-0.10393057064349887	0.5347314331030334	0.004227153623706514	-0.1154584915779501	0.4960630592953291	0.02206770429302074	-0.11513029516832207	0.5058586633400612	-0.01453265271614912	-0.0877175122225288	0.523520377727318	-0.010686428119386027	-0.0888446330032023	0.541249438123455	0.010116019524154307	-0.09896135873378764	0.502190118599191	0.03174669909291905	-0.09733926727678716	0.5113498353406507	-0.0034648288565365393	-0.07381435453977983	0.5293162046049719	-0.0021582137922097067	-0.0745231087508639	0.5456273877332274	0.015974543097139082	-0.0795558427541957	0.5102578857813158	0.03551421307985703	-0.07817003517729262	0.5131110250710108	-0.010115741537788714	-0.059311979685221394	0.5301188314565461	-0.008357851826725993	-0.060114691162579864	0.5407916497852229	0.009708562958189226	-0.06082716905168167	0.5120637066006	0.03127564880055944	-0.057594594280865774	0.4622830810018609	-0.023011742144276925	-0.051989820119430985
1	0.03333333333333339	0.4802804814262345	-0.03131744901445499	-0.17159128089312825	0.4859978783609724	-0.026872851138021625	-0.1497840132511825	0.4825360162522846	-0.025826741611195803	-0.11886894951845967	0.48008609721800233	-0.025128123444065675	-0.07433357223946921	0.5021783738364772	-0.010510252595433145	-0.10158359791151961	0.5199828125518887	-0.012283107652087177	-0.10438697925861659	0.5345488175005091	0.004488309894698617	-0.11615816808167659	0.4957023425063066	0.021925258048898555	-0.11542310781710621	0.5059129417098863	-0.014017581839317894	-0.08817566485900721	0.5235490331374194	-0.010069804113895908	-0.08935181544050425	0.5412008192556008	0.010827649174113607	-0.09940768153514973	0.5018723549553284	0.03193135789111867	-0.09739440183028716	0.5110310816012178	-0.0037557051983660994	-0.0741634430087024	0.5289502212571223	-0.0018914918570644979	-0.07481853278141093	0.5452694699809412	0.016203106568638326	-0.07996125656387248	0.5098993041832828	0.03572452624436717	-0.07835303416313605	0.5127900183129479	-0.009866440802374532	-0.05961667679725624	0.5298042745672095	-0.00806642002711766	-0.06014109011036031	0.5406134176025117	0.009906244913935769	-0.061119742632457286	0.5118808659265223	0.03143437114676928	-0.057675369526973136	0.4622830810018609	-0.023011742144276925	-0.051989820119430985
2	0.06666666666666676	0.47972128486875465	-0.030970671302630093	-0.17185727131328016	0.4854101028001775	-0.02673187310259717	-0.15000160979589477	0.48226776965525353	-0.02569779563991348	-0.11905203102319603	0.47986979466432134	-0.025028297282735368	-0.0745133794058356	0.5022810609593478	-0.010878023420247573	-0.10195054551783447	0.5201312501931156	-0.012165114765878116	-0.10472797961906649	0.5343999412896814	0.004723305989137727	-0.11669441316429346	0.49540990063888124	0.02182073686698771	-0.11565005622047639	0.5059565621415991	-0.013612158381091422	-0.08851793931690796	0.5235669865965522	-0.009564592926404658	-0.08973866222011576	0.5411471766806996	0.011413581967885778	-0.09975178584413122	0.5016046410967697	0.032082609390948535	-0.0974437334230783	0.5108088864066006	-0.0039676060116441425	-0.07444136925252678	0.5286762177495492	-0.001646538920423657	-0.075050563999176	0.5449892826391889	0.01642962327055475	-0.08027705932126764	0.5095995391834247	0.0359007738897581	-0.07849908696504362	0.5125533634183357	-0.00964399487047507	-0.0598455422488072	0.5295684368018938	-0.007801822575010275	-0.060151612479228705	0.5404704391352348	0.010101752028223832	-0.061343409672656224	0.5117167695588473	0.0315762283789901	-0.05774385381778946	0.4622830810018609	-0.023011742144276925	-0.05198982011943096
3	0.10000000000000014	0.479303734569425	-0.030728183224886463	-0.17203552667348238	0.4849759221155906	-0.02662803217022991	-0.1501491142271694	0.4820727285026205	-0.02560361703470626	-0.11917586705358876	0.47972233985905655	-0.024951921486683126	-0.07463441483055394	0.5023780960794417	-0.011114373191048799	-0.10221164194634699	0.520253194765724	-0.012049782413824928	-0.10496951368767504	0.5342842546458636	0.0049312820716869155	-0.11708490227322288	0.4951795178924103	0.021749550106041293	-0.11581939140099062	0.5059942764929536	-0.013302504852369279	-0.08876143468185538	0.5235801632795607	-0.009161144061747839	-0.09002068713094519	0.5410938991952391	0.011885350321590993	-0.10000686149593416	0.5013826935497234	0.03220347059255957	-0.09748851762862279	0.5106640759714803	-0.004092654935525131	-0.07465324227010092	0.528483843708431	-0.0014227916339406566	-0.07522569991218858	0.5447791730089455	0.016651381356890038	-0.08051403544289454	0.5093538384584774	0.036046037657204266	-0.0786130322918972	0.5123923035434812	-0.009450764716201654	-0.06000956411136027	0.5294049639040675	-0.0075671153375498346	-0.06015534639300138	0.5403595721880851	0.010292906595100737	-0.06150745323381357	0.5115706877106546	0.03170204501421259	-0.05780173148272574	0.4622830810018609	-0.023011742144276925	-0.051989820119430985
4	0.13333333333333353	0.4790122179058135	-0.030577825605237696	-0.1721423263847116	0.4846780554982433	-0.02655797102865942	-0.15023938015459515	0.481941471288853	-0.025540497099901804	-0.11925073943466014	0.47963389053539374	-0.024896311640500435	-0.07470693968474926	0.5024596109293331	-0.011244773651257423	-0.10238235606102214	0.5203477588614288	-0.011939432957924323	-0.10512673431613218	0.5341998360060606	0.005112330105874419	-0.11734832047322499	0.49500444816262845	0.021706677733809743	-0.11593931635464291	0.5060290192345835	-0.013074513871436877	-0.08892220915402957	0.5235926030697999	-0.008849037832021622	-0.09021289699532006	0.5410445222292087	0.012255062695454733	-0.10018571046894068	0.5012020748192204	0.03229687033300521	-0.09752991454272086	0.5105798025104671	-0.004131733834638496	-0.07480549060479169	0.5283624830969489	-0.0012199033744927368	-0.07535093953047736	0.5446308876092141	0.01686569946452532	-0.08068291510943676	0.5091570767154631	0.03616327707654221	-0.07869971744339876	0.5122969312582989	-0.009286756988672096	-0.0601189374653191	0.5293056800874287	-0.007362974895782859	-0.06015799801644167	0.5402774803416321	0.010477773430264348	-0.0616206385561863	0.5114418311827249	0.031812635481651586	-0.05785069826054656	0.4622830810018609	-0.023011742144276925	-0.051989820119430985
5	0.1666666666666669	0.4788302498538308	-0.0305071871820064	-0.1721913148880897	0.48449813873554204	-0.026518461181572195	-0.15028320907042403	0.48186476983700066	-0.025504917007435957	-0.11928549792183649	0.47959481760740863	-0.024859002179633993	-0.07473978981307927	0.502521521492005	-0.011291128936998573	-0.10247781704693387	0.5204160967743432	-0.011835973527273058	-0.10521411378471252	0.5341436614711486	0.005267281490503817	-0.11750404740096576	0.4948775482381367	0.02168678376384836	-0.11601798190175938	0.5060624694920192	-0.012914513931611582	-0.08901525672383553	0.52360688001795	-0.008617366280309402	-0.09032985984284758	0.5410011472495837	0.01253517001800264	-0.10030077883876293	0.5010582263575556	0.03236566182307865	-0.09756900535217833	0.5105422298682991	-0.0040933395062499045	-0.07490567059591222	0.5283012963583069	-0.001037718292268286	-0.07543362551837429	0.5445357410405973	0.017069879550993483	-0.0807943796821422	0.5090038376189991	0.036255347406496496	-0.0787639865173374	0.5122566540950222	-0.009150106183423712	-0.06018313592425609	0.5292610738843269	-0.007188147250581367	-0.060162525855285975	0.5402206788774525	0.01065454627558493	-0.06169137023126342	0.5113293606435053	0.03190880336049928	-0.0578924575614099	0.462283081001861	-0.023011742144276925	-0.051989820119430985
6	0.20000000000000023	0.478740748122913	-0.03050372259693812	-0.1721943259002504	0.48441707624405617	-0.026506374303805313	-0.15028997688722318	0.48183355268492956	-0.02549350825800023	-0.11928804939242543	0.4795956669102738	-0.024837697727223995	-0.07474086340040886	0.5025637431783616	-0.011272642498859953	-0.10251283832961638	0.5204610230293261	-0.011740926586194633	-0.10524561785782838	0.534111883613006	0.005397518170209059	-0.11757191290770563	0.49479139244362014	0.02168431435614948	-0.11606349048812681	0.5060955144382915	-0.012809630163635899	-0.08905463227217505	0.5236244757273287	-0.008454920251222076	-0.09038580382616579	0.5409648144811107	0.012738316940825611	-0.10036422550625632	0.5009464966089132	0.03241263531793426	-0.09760680785999398	0.5105403523128458	-0.003991776486066079	-0.07496221327848304	0.5282892673731645	-0.0008762455920250378	-0.0754813292865871	0.5444847582507977	0.01726117249178105	-0.08085907225977973	0.5088884849132793	0.03632501838346214	-0.0788106732998819	0.5122605351462461	-0.0090377013142936	-0.06021104633810448	0.5292607609763332	-0.007040046001419054	-0.060169876239904996	0.5401855702764626	0.010821459055962324	-0.061727822914519836	0.5112323950851373	0.03199134087351163	-0.05792871760255264	0.4622830810018609	-0.023011742144276925	-0.05198982011943096
7	0.23333333333333361	0.47872624750314574	-0.030554831325913745	-0.17216208974583755	0.4844153174503495	-0.026518654591229818	-0.15026816911699128	0.4818388506453404	-0.025503012710198836	-0.11926574517349642	0.47962710260102015	-0.02483022514280775	-0.07471750696503737	0.5025887670006943	-0.011206685444919984	-0.10250201637758904	0.5204865315595415	-0.011655498043882662	-0.10523488868472064	0.5341000935142581	0.005504810772515523	-0.11757201011684335	0.4947383683140254	0.02169357920348247	-0.11608390395466817	0.5061285905520242	-0.012747864587412283	-0.08905367537155251	0.5236460994952907	-0.00835031192274982	-0.09039472383603711	0.5409358220598022	0.012877250147581454	-0.10038800418797678	0.5008621645557317	0.032440530330478445	-0.09764429069492817	0.5105652387398116	-0.003845171224260313	-0.0749841499517293	0.5283152485090944	-0.0007356332347216998	-0.075501766298054	0.5444687914311432	0.017436755737654464	-0.08088760969553574	0.5088052227598097	0.03637499234601316	-0.07884459775457639	0.5122975273260072	-0.008945828668499134	-0.06021113937537989	0.5292938878582658	-0.006915375223403686	-0.06017971542302453	0.5401684732352751	0.010976718398290397	-0.061738047130546814	0.5111500194221085	0.03206102855587811	-0.05796118937948225	0.4622830810018609	-0.023011742144276925	-0.051989820119430985
7	0.2666666666666655	0.4787690663945854	-0.030647911964430175	-0.1721048085435215	0.48447307141915297	-0.02655229486622379	-0.1502258175415446	0.48187174420355905	-0.02553024581741692	-0.11922568024411889	0.4796798519267108	-0.024834489993497577	-0.07467681345628491	0.5026005364527418	-0.01110956283361697	-0.10245984068460912	0.5204973172419083	-0.011580663499700328	-0.10519540306681441	0.5341035473120469	0.005591184376385949	-0.11752455457042613	0.4947107531850906	0.021708815327005193	-0.11608725244112972	0.5061619084624407	-0.012717973833603735	-0.08902527059975002	0.5236719525987736	-0.00829205417395762	-0.0903704804384105	0.5409139891506822	0.01296476338985142	-0.10038394300645298	0.5008004591279737	0.03245204693322645	-0.09768238600772713	0.5106090798720659	-0.0036736581165061066	-0.07498085519209755	0.5283679996219781	-0.000616140734188475	-0.07550273331293561	0.5444786121637648	0.01759372205566989	-0.08089059371414861	0.5087481454245122	0.03640792056922071	-0.0788705652767559	0.5123566280428781	-0.008870722119945551	-0.060191644122516014	0.5293494555846309	-0.006810670710064692	-0.060191074126547395	0.5401656474619801	0.011118455362826518	-0.0617300512331779	0.5110812912122135	0.03211863502954493	-0.05799158543793481	0.4622830810018608	-0.023011742144276925	-0.051989820119430985
